<?xml version="1.0" encoding="utf-8"?>
<!-- Generator: Adobe Illustrator 27.5.0, SVG Export Plug-In . SVG Version: 6.00 Build 0)  -->
<svg version="1.1" xmlns="http://www.w3.org/2000/svg" xmlns:xlink="http://www.w3.org/1999/xlink" x="0px" y="0px"
	 viewBox="0 0 500 500" style="enable-background:new 0 0 500 500;" xml:space="preserve">
<g id="Background_Complete">
	<g>
		<rect x="416.779" y="398.494" style="fill:#EBEBEB;" width="33.122" height="0.25"/>
		<rect x="322.527" y="401.208" style="fill:#EBEBEB;" width="8.693" height="0.25"/>
		<rect x="396.586" y="389.208" style="fill:#EBEBEB;" width="19.192" height="0.25"/>
		<rect x="52.459" y="390.888" style="fill:#EBEBEB;" width="43.193" height="0.25"/>
		<rect x="104.556" y="390.888" style="fill:#EBEBEB;" width="6.333" height="0.25"/>
		<rect x="131.471" y="395.111" style="fill:#EBEBEB;" width="93.676" height="0.25"/>
		<path style="fill:#EBEBEB;" d="M237.014,337.8H43.915c-3.147,0-5.708-2.561-5.708-5.708V60.66c0-3.147,2.561-5.708,5.708-5.708
			h193.099c3.146,0,5.707,2.561,5.707,5.708v271.432C242.721,335.239,240.16,337.8,237.014,337.8z M43.915,55.203
			c-3.01,0-5.458,2.448-5.458,5.458v271.432c0,3.01,2.448,5.458,5.458,5.458h193.099c3.009,0,5.457-2.448,5.457-5.458V60.66
			c0-3.009-2.448-5.458-5.457-5.458H43.915z"/>
		<path style="fill:#EBEBEB;" d="M453.31,337.8H260.212c-3.147,0-5.707-2.561-5.707-5.708V60.66c0-3.147,2.561-5.708,5.707-5.708
			H453.31c3.148,0,5.708,2.561,5.708,5.708v271.432C459.019,335.239,456.458,337.8,453.31,337.8z M260.212,55.203
			c-3.009,0-5.457,2.448-5.457,5.458v271.432c0,3.01,2.448,5.458,5.457,5.458H453.31c3.01,0,5.458-2.448,5.458-5.458V60.66
			c0-3.009-2.448-5.458-5.458-5.458H260.212z"/>
		<rect y="382.398" style="fill:#EBEBEB;" width="500" height="0.25"/>
	</g>
	<g>
		<g>
			<g>
				<rect x="166.56" y="291.33" style="fill:#E6E6E6;" width="86.408" height="80.514"/>
				<rect x="169.276" y="374.373" style="fill:#E0E0E0;" width="11.027" height="7.035"/>
				<rect x="252.968" y="291.33" style="fill:#E6E6E6;" width="175.458" height="79.733"/>
				<rect x="430.793" y="285.398" style="fill:#E6E6E6;" width="11.028" height="96.01"/>
				<rect x="261.521" y="297.675" style="fill:#F5F5F5;" width="76.064" height="69.663"/>
				<polygon style="fill:#FAFAFA;" points="274.364,367.338 294.668,367.338 301.989,297.675 281.685,297.675 				"/>
				<polygon style="fill:#FAFAFA;" points="299.869,367.338 303.91,367.338 311.232,297.675 307.19,297.675 				"/>
				<rect x="174.789" y="297.675" style="fill:#F5F5F5;" width="76.064" height="69.663"/>
				<rect x="349.081" y="297.675" style="fill:#F5F5F5;" width="76.064" height="69.663"/>
				<path style="fill:#F0F0F0;" d="M427.984,285.398h-2.941H256.007h-0.195h-2.745h-2.941H169.3h-2.94h-2.941v96.01h5.881v-5.38
					h80.826h5.881h169.037v5.38h5.881v-96.01H427.984z M169.3,294.089h80.826v33.347H169.3V294.089z M169.3,367.338v-34.937h80.826
					v34.937H169.3z M337.585,367.338h-81.578v-73.249h81.578V367.338z M425.044,367.338h-81.578v-34.937h81.578V367.338z
					 M425.044,327.435h-81.578v-33.347h81.578V327.435z"/>
			</g>
			<g>
				<path style="fill:#EBEBEB;" d="M214.071,305.936c0,1.952-1.582,3.534-3.534,3.534c-1.952,0-3.534-1.582-3.534-3.534
					c0-1.952,1.582-3.534,3.534-3.534C212.489,302.402,214.071,303.984,214.071,305.936z"/>
				<path style="fill:#E0E0E0;" d="M210.537,309.47c-1.425,0-2.646-0.848-3.205-2.063c-0.206,0.449-0.329,0.944-0.329,1.47
					c0,1.952,1.582,3.534,3.534,3.534c1.952,0,3.534-1.582,3.534-3.534c0-0.526-0.123-1.021-0.329-1.47
					C213.183,308.621,211.962,309.47,210.537,309.47z"/>
			</g>
			<g>
				<circle style="fill:#EBEBEB;" cx="210.537" cy="346.996" r="3.534"/>
				<path style="fill:#E0E0E0;" d="M210.537,350.529c-1.425,0-2.646-0.848-3.205-2.064c-0.206,0.449-0.329,0.944-0.329,1.47
					c0,1.952,1.582,3.534,3.534,3.534c1.952,0,3.534-1.582,3.534-3.534c0-0.527-0.123-1.021-0.329-1.47
					C213.183,349.681,211.962,350.529,210.537,350.529z"/>
			</g>
			<g>
				<path style="fill:#EBEBEB;" d="M392.367,305.936c0,1.952-1.582,3.534-3.534,3.534c-1.952,0-3.534-1.582-3.534-3.534
					c0-1.952,1.582-3.534,3.534-3.534C390.785,302.402,392.367,303.984,392.367,305.936z"/>
				<path style="fill:#E0E0E0;" d="M388.833,309.47c-1.425,0-2.646-0.848-3.205-2.063c-0.207,0.449-0.329,0.944-0.329,1.47
					c0,1.952,1.582,3.534,3.534,3.534s3.534-1.582,3.534-3.534c0-0.526-0.123-1.021-0.329-1.47
					C391.479,308.621,390.259,309.47,388.833,309.47z"/>
			</g>
			<g>
				<path style="fill:#EBEBEB;" d="M330.405,334.545c0,1.952-1.582,3.534-3.534,3.534c-1.952,0-3.534-1.582-3.534-3.534
					c0-1.952,1.582-3.534,3.534-3.534C328.822,331.011,330.405,332.593,330.405,334.545z"/>
				<path style="fill:#E0E0E0;" d="M326.871,338.079c-1.426,0-2.646-0.848-3.205-2.064c-0.207,0.449-0.329,0.944-0.329,1.47
					c0,1.952,1.582,3.534,3.534,3.534c1.952,0,3.534-1.582,3.534-3.534c0-0.527-0.123-1.022-0.329-1.47
					C329.517,337.23,328.296,338.079,326.871,338.079z"/>
			</g>
			<g>
				<circle style="fill:#EBEBEB;" cx="388.833" cy="346.996" r="3.534"/>
				<path style="fill:#E0E0E0;" d="M388.833,350.529c-1.425,0-2.646-0.848-3.205-2.064c-0.207,0.449-0.329,0.944-0.329,1.47
					c0,1.952,1.582,3.534,3.534,3.534s3.534-1.582,3.534-3.534c0-0.527-0.123-1.021-0.329-1.47
					C391.479,349.681,390.259,350.529,388.833,350.529z"/>
			</g>
		</g>
		<g>
			<rect x="66.503" y="77.418" style="opacity:0.1;" width="67.557" height="100.694"/>
			<g>
				<rect x="63.762" y="74.677" style="fill:#EBEBEB;" width="67.557" height="100.694"/>
				<rect x="69.794" y="83.192" style="fill:#F5F5F5;" width="58.235" height="86.8"/>
				<g>
					<path style="fill:#E0E0E0;" d="M113.418,116.275c0,6.453-5.231,11.684-11.684,11.684c-6.453,0-11.684-5.231-11.684-11.684
						c0-6.453,5.231-11.684,11.684-11.684C108.187,104.592,113.418,109.822,113.418,116.275z"/>
					<polygon style="fill:#EBEBEB;" points="88.414,147.195 98.153,135.545 101.734,147.195 					"/>
					<g>
						<path style="fill:#EBEBEB;" d="M80.184,96.046c-8.176,13.314-2.262,29.846,7.026,40.703c1.427,1.668,3.827-0.75,2.409-2.408
							c-8.294-9.696-13.824-24.639-6.493-36.576C84.275,95.892,81.33,94.179,80.184,96.046L80.184,96.046z"/>
					</g>
					<polygon style="fill:#EBEBEB;" points="120.542,95.239 114.297,101.625 120.542,106.972 126.219,101.106 					"/>
				</g>
			</g>
			<polygon style="fill:#E0E0E0;" points="131.319,74.677 134.06,77.418 134.06,178.112 66.503,178.112 63.762,175.371 
				131.319,175.371 			"/>
		</g>
		<g>
			<path style="fill:#F0F0F0;" d="M54.081,283.461c0-8.513,10.018-15.722,23.852-18.186l-13.675-16.332h48.312l-13.675,16.332
				c13.835,2.465,23.853,9.673,23.853,18.186c0,9.376-12.149,77.938-28.169,93.041l5.054,6.037H77.196l5.054-6.037
				C66.23,361.4,54.081,292.837,54.081,283.461z"/>
			<path style="fill:#E0E0E0;" d="M106.924,353.762c-5.763-4.185-9.734-12.853-9.734-22.898c0-14.128,7.835-25.58,17.5-25.58
				c1.642,0,3.224,0.354,4.73,0.972C116.652,320.667,112.3,339.033,106.924,353.762z"/>
			<path style="fill:#E6E6E6;" d="M64.555,269.737c6.431,3.782,10.977,12.97,10.977,23.725c0,13.137-6.777,23.947-15.498,25.401
				c-3.756-16.727-5.954-31.414-5.954-35.401C54.08,278.072,58.099,273.208,64.555,269.737z"/>
		</g>
		<g>
			<g>
				<g>
					<g>
						<path style="fill:#E6E6E6;" d="M413.422,189.9c-0.26,0.61-0.64,1.15-1.1,1.6c-0.25,0.26-0.53,0.49-0.83,0.68
							c-0.8,0.52-1.72,0.8-2.65,0.77c-1.35-0.04-2.42-1.39-2.64-2.61c-0.22-1.24,0.38-2.57,1.46-3.23l0.52,0.85
							c-0.72,0.45-1.14,1.37-0.99,2.2c0.15,0.83,0.9,1.77,1.68,1.8c1.47,0.04,3-0.99,3.63-2.46c0.58-1.36,0.26-2.76-0.86-3.86
							c-1.03-1-2.2-1.43-3.49-1.26c-1.88,0.23-3.9,1.74-5.17,3.82c-2.49,4.09-2.32,8.88-1.75,12.18c0.39,2.2,1.06,4.28,1.89,6.29
							c0.17,0.42,0.35,0.84,0.54,1.25c0.7,1.59,1.48,3.13,2.24,4.65c2.07,4.13,4.2,8.38,4.83,13.26c0.06,0.44,0.11,0.9,0.14,1.36
							c0.03,0.44,0.05,0.87,0.06,1.31c0.01,0.29,0.02,0.59,0.02,0.88c0.05,10.76-5.13,20.55-13.65,25.82
							c-0.07-0.36-0.14-0.71-0.21-1.06c7.83-5.04,12.76-14.4,12.85-24.41c0-0.11,0.01-0.23,0.01-0.35c0-0.33-0.01-0.67-0.02-1
							c-0.01-0.37-0.03-0.75-0.06-1.12c-0.02-0.22-0.03-0.44-0.06-0.66c-0.08-0.87-0.22-1.71-0.4-2.54
							c-0.82-3.9-2.57-7.39-4.4-11.04c-1.06-2.12-2.14-4.27-3.03-6.53c-0.4-1-0.76-2.03-1.07-3.09c-0.27-0.93-0.49-1.88-0.66-2.85
							c-0.87-4.97-0.22-9.42,1.87-12.87c1.43-2.33,3.74-4.03,5.9-4.29c1.21-0.16,2.35,0.11,3.38,0.78c0.29,0.18,0.57,0.4,0.83,0.66
							c0.04,0.02,0.07,0.06,0.11,0.09C413.752,186.3,414.162,188.16,413.422,189.9z"/>
					</g>
					<g>
						<g>
							<path style="fill:#E6E6E6;" d="M409.789,226.611c-1.733-3.418-5.106-6.624-7.517-7.148l0.212-0.978
								c2.714,0.59,6.314,3.96,8.198,7.674L409.789,226.611z"/>
						</g>
						<g>
							<path style="fill:#E6E6E6;" d="M410.847,229.696l-1,0.03c-0.068-2.324,0.913-4.65,2.625-6.222l0.676,0.736
								C411.648,225.62,410.788,227.659,410.847,229.696z"/>
						</g>
						<g>
							<path style="fill:#E6E6E6;" d="M401.957,206.508c-1.494-2.217-3.821-5.026-6.384-7.708l0.723-0.69
								c1.231,1.287,4.327,4.628,6.491,7.84L401.957,206.508z"/>
						</g>
						<g>
							
								<rect x="402.147" y="205.762" transform="matrix(0.3978 -0.9175 0.9175 0.3978 53.9365 494.7025)" style="fill:#E6E6E6;" width="3.382" height="1"/>
						</g>
						<g>
							<path style="fill:#E6E6E6;" d="M415.17,193.4c-1.495-0.157-2.941-0.691-4.181-1.544l0.566-0.825
								c1.104,0.759,2.39,1.234,3.72,1.374L415.17,193.4z"/>
						</g>
						<g>
							
								<rect x="410.233" y="182.957" transform="matrix(0.3119 -0.9501 0.9501 0.3119 109.3055 517.8376)" style="fill:#E6E6E6;" width="3.84" height="1"/>
						</g>
					</g>
					<g>
						<g>
							<path style="fill:#E6E6E6;" d="M408.625,196.923c0.77-0.348,1.789-0.297,2.336,0.348c0.64,0.753,0.378,1.897,0.011,2.815
								c-0.914,2.285-3.894,8.757-7.01,6.055C401.018,203.589,406.25,197.995,408.625,196.923z"/>
						</g>
						<g>
							<path style="fill:#E6E6E6;" d="M398.15,197.818c0.456,0.712,0.554,1.727-0.004,2.362c-0.652,0.742-1.822,0.65-2.783,0.421
								c-2.394-0.571-9.23-2.578-7.011-6.054C390.448,191.262,396.744,195.624,398.15,197.818z"/>
						</g>
						<g>
							<path style="fill:#E6E6E6;" d="M405.292,215.905c-2.834-4.183-9.103-6.724-14.709-5.962
								c-2.632,0.358-2.992,4.322-2.195,6.448c0.797,2.126,2.92,3.861,5.355,4.913c2.523,1.091,5.587,1.514,8.098,0.631
								C404.35,221.052,406.671,217.941,405.292,215.905z"/>
						</g>
						<g>
							<path style="fill:#E6E6E6;" d="M423.591,215.708c-2.99-0.405-6.157-0.592-8.903,0.657c-2.746,1.25-4.857,4.367-4.011,7.263
								c0.628,2.15,2.726,3.478,4.954,3.242c2.228-0.235,4.138-1.672,5.757-3.22c1.07-1.023,2.104-2.176,2.501-3.602
								C424.287,218.623,425.057,215.906,423.591,215.708z"/>
						</g>
						<g>
							<path style="fill:#E6E6E6;" d="M412.161,183.783c-0.503-1.102-0.844-2.319-0.681-3.519c0.163-1.2,0.916-2.37,2.059-2.771
								c1.143-0.4,2.614,0.195,2.941,1.361c0.357,1.271-0.06,2.924-0.966,3.884C414.608,183.699,413.432,184.141,412.161,183.783z"
								/>
						</g>
						<g>
							<path style="fill:#E6E6E6;" d="M423.715,196.08c-1.706,1.522-4.277,1.997-6.414,1.185c-2.137-0.812-3.744-2.875-4.009-5.145
								c1.651-1.458,4.123-1.69,6.22-1.02C421.61,191.77,423.215,193.936,423.715,196.08z"/>
						</g>
					</g>
				</g>
			</g>
			<g>
				<path style="fill:#F0F0F0;" d="M411.971,283.5l2.14,2.56h-9.52l2.15-2.56c-4.45-4.19-8.19-18.08-10.24-28.3
					c-0.07-0.36-0.14-0.71-0.21-1.06c-0.96-4.92-1.5-8.82-1.5-10.11c0-3.62,4.25-6.68,10.12-7.72l-5.8-6.93h20.49l-5.8,6.93
					c5.87,1.04,10.12,4.1,10.12,7.72C423.921,248,418.772,277.09,411.971,283.5z"/>
			</g>
		</g>
	</g>
</g>
<g id="Background_Simple" style="display:none;">
	<g style="display:inline;">
		<path style="fill:#407BFF;" d="M135.164,351.15c-41.552-18.852-70.883-61.283-75.781-106.647
			c-4.898-45.365,14-92.223,47.682-123.004c33.682-30.781,81.052-45.366,126.462-40.896c36.833,3.626,68.983,26.415,90.26,56.7
			c7.749,11.029,14.047,23.33,24.039,32.377c19.311,17.485,48.613,19.577,69.036,35.749c22.507,17.822,29.636,50.862,20.908,78.211
			s-31.064,48.917-56.792,61.655c-25.728,12.738-54.688,17.503-83.335,19.379C284.445,365.538,172.023,367.872,135.164,351.15z"/>
		<path style="opacity:0.9;fill:#FFFFFF;" d="M135.164,351.15c-41.552-18.852-70.883-61.283-75.781-106.647
			c-4.898-45.365,14-92.223,47.682-123.004c33.682-30.781,81.052-45.366,126.462-40.896c36.833,3.626,68.983,26.415,90.26,56.7
			c7.749,11.029,14.047,23.33,24.039,32.377c19.311,17.485,48.613,19.577,69.036,35.749c22.507,17.822,29.636,50.862,20.908,78.211
			s-31.064,48.917-56.792,61.655c-25.728,12.738-54.688,17.503-83.335,19.379C284.445,365.538,172.023,367.872,135.164,351.15z"/>
	</g>
</g>
<g id="Shadow">
	<ellipse id="_x3C_Path_x3E__1_" style="fill:#F5F5F5;" cx="245.178" cy="412.391" rx="193.889" ry="11.323"/>
</g>
<g id="Device">
	<g>
		<g>
			<g>
				<path style="fill:#407BFF;" d="M342.848,339.828h-96.292c-10.833,0-19-8.782-18.243-19.614l16.094-230.151
					c0.757-10.833,10.153-19.614,20.986-19.614h96.292c10.833,0,19,8.782,18.243,19.614l-16.094,230.151
					C363.076,331.046,353.681,339.828,342.848,339.828z"/>
				<path style="fill:#263238;" d="M337.848,339.828h-96.292c-10.833,0-19-8.782-18.243-19.614l16.094-230.151
					c0.757-10.833,10.153-19.614,20.986-19.614h96.292c10.833,0,19,8.782,18.243,19.614l-16.094,230.151
					C358.076,331.046,348.681,339.828,337.848,339.828z"/>
				<g>
					<path style="fill:#407BFF;" d="M356.37,74.949h-25.028c-1.639,0-3.108,1.218-3.43,2.844l-0.155,0.784
						c-0.785,3.971-4.372,6.947-8.375,6.947h-23.794c-4.003,0-7.175-2.976-7.404-6.947l-0.045-0.784
						c-0.094-1.626-1.393-2.844-3.032-2.844h-25.029c-8.347,0-15.587,6.767-16.171,15.114l-16.094,230.15
						c-0.584,8.347,5.71,15.114,14.057,15.114h96.292c8.347,0,15.587-6.767,16.171-15.114l16.094-230.15
						C371.011,81.716,364.717,74.949,356.37,74.949z"/>
					<path style="opacity:0.8;fill:#FFFFFF;" d="M370.429,90.065l-16.094,230.15c-0.584,8.35-7.826,15.11-16.177,15.11h-96.29
						c-8.35,0-14.637-6.76-14.053-15.11l16.094-230.15c0.584-8.35,7.817-15.12,16.167-15.12h25.03c1.64,0,2.935,1.22,3.031,2.85
						l0.046,0.78c0.232,3.97,3.404,6.95,7.404,6.95h23.79c4.01,0,7.598-2.98,8.376-6.95l0.155-0.78
						c0.324-1.63,1.799-2.85,3.439-2.85h25.02C364.717,74.945,371.013,81.715,370.429,90.065z"/>
					<path style="fill:#263238;" d="M356.27,292.555l-1.934,27.66c-0.584,8.35-7.826,15.11-16.177,15.11h-96.29
						c-8.35,0-14.637-6.76-14.053-15.11l1.934-27.66H356.27z"/>
					<path style="opacity:0.5;fill:#FFFFFF;" d="M356.27,292.555l-1.934,27.66c-0.584,8.35-7.826,15.11-16.177,15.11h-96.29
						c-8.35,0-14.637-6.76-14.053-15.11l1.934-27.66H356.27z"/>
				</g>
				<g style="opacity:0.7;">
					<path d="M302.222,77.499c-0.074,1.056-0.99,1.912-2.046,1.912c-1.056,0-1.853-0.856-1.779-1.912
						c0.074-1.056,0.99-1.912,2.046-1.912C301.499,75.587,302.296,76.443,302.222,77.499z"/>
					<path d="M315.916,75.587c-0.755,0-5.802,0-6.557,0c-1.056,0-1.972,0.856-2.046,1.912c-0.074,1.056,0.722,1.912,1.779,1.912
						c0.656,0,5.901,0,6.557,0c1.056,0,1.973-0.856,2.046-1.912C317.768,76.443,316.972,75.587,315.916,75.587z"/>
				</g>
				<g>
					<polygon style="fill:#407BFF;" points="254.708,85.487 256.733,85.487 256.875,83.462 254.85,83.462 					"/>
					<polygon style="fill:#407BFF;" points="258.9,83.462 258.758,85.487 260.783,85.487 260.924,83.462 261.066,81.437 
						259.041,81.437 					"/>
					<polygon style="fill:#407BFF;" points="263.233,79.412 263.091,81.437 262.949,83.462 262.808,85.487 264.833,85.487 
						264.974,83.462 265.116,81.437 265.258,79.412 					"/>
				</g>
				<path style="fill:#407BFF;" d="M350.305,79.547l-0.104,1.485h-0.99l-0.208,2.97h0.99l-0.104,1.485h8.91l0.415-5.94H350.305z
					 M353.953,84.002h-2.97l0.208-2.97h2.97L353.953,84.002z"/>
			</g>
			<g>
				<g>
					<g>
						<path style="fill:#407BFF;" d="M260.448,194.323h-0.676c-0.464,0-0.815-0.377-0.782-0.841l1.003-14.329
							c0.196-2.8,2.633-5.078,5.434-5.078l14.322,0.002c0.464,0,0.814,0.376,0.782,0.841l-0.047,0.676
							c-0.032,0.465-0.435,0.841-0.9,0.841l-14.322-0.002c-1.503,0-2.806,1.218-2.911,2.721l-1.003,14.329
							C261.315,193.947,260.912,194.323,260.448,194.323z"/>
					</g>
					<g>
						<path style="fill:#407BFF;" d="M314.768,253.457l0.047-0.676c0.033-0.464,0.435-0.841,0.9-0.841l14.32-0.001
							c1.502,0,2.805-1.218,2.911-2.72l1.004-14.326c0.033-0.464,0.435-0.841,0.9-0.841h0.676c0.464,0,0.815,0.376,0.782,0.841
							l-1.004,14.326c-0.196,2.804-2.629,5.077-5.433,5.077l-14.32,0.001C315.086,254.298,314.735,253.922,314.768,253.457z"/>
					</g>
					<g>
						<path style="fill:#407BFF;" d="M338.307,194.323h-0.676c-0.464,0-0.815-0.377-0.782-0.841l0.996-14.219
							c0.04-0.577-0.06-1.158-0.355-1.631c-0.475-0.761-1.273-1.19-2.168-1.19l-14.328-0.002c-0.464,0-0.814-0.377-0.782-0.841
							l0.047-0.676c0.033-0.464,0.435-0.841,0.9-0.841l14.134,0.002c1.244,0,2.459,0.374,3.357,1.172
							c1.108,0.985,1.665,2.396,1.559,3.907l-1.003,14.319C339.175,193.947,338.772,194.323,338.307,194.323z"/>
					</g>
					<g>
						<path style="fill:#407BFF;" d="M259.809,254.301c-1.509,0-2.872-0.655-3.776-1.83c-0.732-0.954-1.02-2.194-0.933-3.439
							l0.99-14.139c0.033-0.464,0.435-0.841,0.9-0.841h0.676c0.465,0,0.815,0.376,0.782,0.841l-0.996,14.233
							c-0.04,0.575,0.06,1.155,0.356,1.627c0.475,0.76,1.273,1.189,2.167,1.189c0,0,0.001,0,0.001,0l14.328-0.001
							c0.465,0,0.815,0.377,0.782,0.841l-0.047,0.676c-0.032,0.464-0.435,0.841-0.9,0.841l-14.328,0.001
							C259.811,254.301,259.81,254.301,259.809,254.301z"/>
					</g>
				</g>
			</g>
			<g>
				<path style="fill:#263238;" d="M273.396,274.512c-0.598,0.672-1.415,1.032-2.339,1.032c-1.247,0-2.091-0.456-3.29-1.823
					c-2.283-0.288-3.78-2.027-3.621-4.307c0.174-2.495,2.247-4.342,4.897-4.342c2.639,0,4.465,1.835,4.29,4.342
					c-0.138,1.968-1.458,3.526-3.286,4.103c0.377,0.432,0.727,0.588,1.146,0.588c0.516,0,0.985-0.204,1.411-0.624L273.396,274.512z
					 M268.551,272.101c1.5,0,2.703-1.091,2.815-2.686c0.111-1.595-0.939-2.687-2.439-2.687c-1.499,0-2.703,1.092-2.814,2.687
					C266.001,271.01,267.052,272.101,268.551,272.101z"/>
				<path style="fill:#263238;" d="M279.857,273.612l-1.456-2.339h-0.096h-1.691l-0.163,2.339h-1.943l0.587-8.396h3.634
					c2.243,0,3.565,1.163,3.433,3.046c-0.088,1.26-0.789,2.183-1.913,2.65l1.694,2.699H279.857z M278.51,266.8h-1.583l-0.204,2.926
					h1.583c1.188,0,1.826-0.551,1.89-1.463C280.26,267.339,279.698,266.8,278.51,266.8z"/>
				<path style="fill:#263238;" d="M286.49,269.414c0.177-2.531,2.247-4.342,4.861-4.342c1.451,0,2.625,0.528,3.35,1.487
					l-1.328,1.151c-0.518-0.647-1.202-0.983-2.042-0.983c-1.571,0-2.764,1.104-2.875,2.687c-0.111,1.584,0.927,2.686,2.499,2.686
					c0.84,0,1.571-0.335,2.181-0.995l1.167,1.151c-0.859,0.972-2.108,1.499-3.571,1.499
					C288.129,273.756,286.313,271.945,286.49,269.414z"/>
				<path style="fill:#263238;" d="M295.105,269.414c0.174-2.495,2.246-4.342,4.897-4.342c2.639,0,4.465,1.835,4.29,4.342
					c-0.175,2.507-2.259,4.342-4.898,4.342C296.745,273.756,294.931,271.909,295.105,269.414z M302.326,269.414
					c0.111-1.595-0.94-2.687-2.439-2.687c-1.499,0-2.703,1.092-2.814,2.687c-0.112,1.596,0.939,2.686,2.438,2.686
					C301.01,272.101,302.214,271.01,302.326,269.414z"/>
				<path style="fill:#263238;" d="M306.055,265.217h3.814c2.746,0,4.514,1.654,4.336,4.197c-0.178,2.543-2.177,4.198-4.923,4.198
					h-3.814L306.055,265.217z M309.297,272.017c1.667,0,2.828-0.995,2.94-2.603c0.112-1.607-0.909-2.603-2.576-2.603h-1.775
					l-0.364,5.205H309.297z"/>
				<path style="fill:#263238;" d="M321.989,272.053l-0.109,1.56h-6.501l0.587-8.396h6.344l-0.109,1.559h-4.414l-0.127,1.823h3.898
					l-0.106,1.511h-3.898l-0.136,1.943H321.989z"/>
			</g>
			<polygon style="fill:#407BFF;" points="366.919,140.229 240.055,140.229 243.046,97.456 369.91,97.456 			"/>
			<path style="opacity:0.2;fill:#FFFFFF;" d="M228.079,319.407c-0.296,4.23,1.179,8.049,3.787,10.792L366.647,78.214
				c-2.524-2.519-6.028-4.071-10.011-4.071h-96.292c-8.347,0-15.587,6.767-16.171,15.114L228.079,319.407z"/>
		</g>
		<g>
			<line style="fill:none;stroke:#E0E0E0;stroke-miterlimit:10;" x1="274.77" y1="105.034" x2="272.839" y2="132.651"/>
			<line style="fill:none;stroke:#E0E0E0;stroke-miterlimit:10;" x1="306.4" y1="105.034" x2="304.469" y2="132.651"/>
			<line style="fill:none;stroke:#E0E0E0;stroke-miterlimit:10;" x1="338.03" y1="105.034" x2="336.099" y2="132.651"/>
		</g>
	</g>
</g>
<g id="QR_Code">
	<g>
		<polygon style="fill:#263238;" points="266.553,180.418 266.365,183.104 269.051,183.104 269.238,180.418 		"/>
		<polygon style="fill:#263238;" points="269.238,180.418 269.051,183.104 271.736,183.104 271.924,180.418 		"/>
		<polygon style="fill:#263238;" points="271.924,180.418 271.736,183.104 274.421,183.104 274.609,180.418 		"/>
		<polygon style="fill:#263238;" points="274.609,180.418 274.421,183.104 277.106,183.104 277.294,180.418 		"/>
		<polygon style="fill:#263238;" points="277.294,180.418 277.106,183.104 279.792,183.104 279.979,180.418 		"/>
		<polygon style="fill:#263238;" points="279.979,180.418 279.792,183.104 282.477,183.104 282.665,180.418 		"/>
		<polygon style="fill:#263238;" points="282.665,180.418 282.477,183.104 285.162,183.104 285.35,180.418 		"/>
		<polygon style="fill:#263238;" points="293.406,180.418 293.218,183.104 295.903,183.104 296.091,180.418 		"/>
		<polygon style="fill:#263238;" points="301.461,180.418 301.274,183.104 303.959,183.104 304.147,180.418 		"/>
		<polygon style="fill:#263238;" points="304.147,180.418 303.959,183.104 306.644,183.104 306.832,180.418 		"/>
		<polygon style="fill:#263238;" points="306.832,180.418 306.644,183.104 309.33,183.104 309.517,180.418 		"/>
		<polygon style="fill:#263238;" points="309.517,180.418 309.33,183.104 312.015,183.104 312.203,180.418 		"/>
		<polygon style="fill:#263238;" points="314.888,180.418 314.7,183.104 317.385,183.104 317.573,180.418 		"/>
		<polygon style="fill:#263238;" points="317.573,180.418 317.385,183.104 320.071,183.104 320.258,180.418 		"/>
		<polygon style="fill:#263238;" points="320.258,180.418 320.071,183.104 322.756,183.104 322.944,180.418 		"/>
		<polygon style="fill:#263238;" points="322.944,180.418 322.756,183.104 325.441,183.104 325.629,180.418 		"/>
		<polygon style="fill:#263238;" points="325.629,180.418 325.441,183.104 328.126,183.104 328.314,180.418 		"/>
		<polygon style="fill:#263238;" points="328.314,180.418 328.126,183.104 330.812,183.104 330.999,180.418 		"/>
		<polygon style="fill:#263238;" points="330.999,180.418 330.812,183.104 333.497,183.104 333.685,180.418 		"/>
		<polygon style="fill:#263238;" points="266.365,183.104 266.178,185.789 268.863,185.789 269.051,183.104 		"/>
		<polygon style="fill:#263238;" points="282.477,183.104 282.289,185.789 284.974,185.789 285.162,183.104 		"/>
		<polygon style="fill:#263238;" points="290.533,183.104 290.345,185.789 293.03,185.789 293.218,183.104 		"/>
		<polygon style="fill:#263238;" points="303.959,183.104 303.771,185.789 306.457,185.789 306.644,183.104 		"/>
		<polygon style="fill:#263238;" points="306.644,183.104 306.457,185.789 309.142,185.789 309.33,183.104 		"/>
		<polygon style="fill:#263238;" points="309.33,183.104 309.142,185.789 311.827,185.789 312.015,183.104 		"/>
		<polygon style="fill:#263238;" points="314.7,183.104 314.512,185.789 317.198,185.789 317.385,183.104 		"/>
		<polygon style="fill:#263238;" points="330.812,183.104 330.624,185.789 333.309,185.789 333.497,183.104 		"/>
		<polygon style="fill:#263238;" points="266.178,185.789 265.99,188.474 268.675,188.474 268.863,185.789 		"/>
		<polygon style="fill:#263238;" points="271.548,185.789 271.36,188.474 274.046,188.474 274.233,185.789 		"/>
		<polygon style="fill:#263238;" points="274.233,185.789 274.046,188.474 276.731,188.474 276.919,185.789 		"/>
		<polygon style="fill:#263238;" points="276.919,185.789 276.731,188.474 279.416,188.474 279.604,185.789 		"/>
		<polygon style="fill:#263238;" points="282.289,185.789 282.101,188.474 284.787,188.474 284.974,185.789 		"/>
		<polygon style="fill:#263238;" points="287.66,185.789 287.472,188.474 290.157,188.474 290.345,185.789 		"/>
		<polygon style="fill:#263238;" points="295.716,185.789 295.528,188.474 298.213,188.474 298.401,185.789 		"/>
		<polygon style="fill:#263238;" points="303.771,185.789 303.583,188.474 306.269,188.474 306.457,185.789 		"/>
		<polygon style="fill:#263238;" points="314.512,185.789 314.324,188.474 317.01,188.474 317.198,185.789 		"/>
		<polygon style="fill:#263238;" points="319.883,185.789 319.695,188.474 322.38,188.474 322.568,185.789 		"/>
		<polygon style="fill:#263238;" points="322.568,185.789 322.38,188.474 325.066,188.474 325.253,185.789 		"/>
		<polygon style="fill:#263238;" points="325.253,185.789 325.066,188.474 327.751,188.474 327.939,185.789 		"/>
		<polygon style="fill:#263238;" points="330.624,185.789 330.436,188.474 333.121,188.474 333.309,185.789 		"/>
		<polygon style="fill:#263238;" points="265.99,188.474 265.802,191.159 268.487,191.159 268.675,188.474 		"/>
		<polygon style="fill:#263238;" points="271.36,188.474 271.173,191.159 273.858,191.159 274.046,188.474 		"/>
		<polygon style="fill:#263238;" points="274.046,188.474 273.858,191.159 276.543,191.159 276.731,188.474 		"/>
		<polygon style="fill:#263238;" points="276.731,188.474 276.543,191.159 279.228,191.159 279.416,188.474 		"/>
		<polygon style="fill:#263238;" points="282.101,188.474 281.914,191.159 284.599,191.159 284.787,188.474 		"/>
		<polygon style="fill:#263238;" points="290.157,188.474 289.969,191.159 292.655,191.159 292.842,188.474 		"/>
		<polygon style="fill:#263238;" points="303.583,188.474 303.396,191.159 306.081,191.159 306.269,188.474 		"/>
		<polygon style="fill:#263238;" points="306.269,188.474 306.081,191.159 308.766,191.159 308.954,188.474 		"/>
		<polygon style="fill:#263238;" points="314.324,188.474 314.137,191.159 316.822,191.159 317.01,188.474 		"/>
		<polygon style="fill:#263238;" points="319.695,188.474 319.507,191.159 322.193,191.159 322.38,188.474 		"/>
		<polygon style="fill:#263238;" points="322.38,188.474 322.193,191.159 324.878,191.159 325.066,188.474 		"/>
		<polygon style="fill:#263238;" points="325.066,188.474 324.878,191.159 327.563,191.159 327.751,188.474 		"/>
		<polygon style="fill:#263238;" points="330.436,188.474 330.248,191.159 332.934,191.159 333.121,188.474 		"/>
		<polygon style="fill:#263238;" points="265.802,191.159 265.614,193.845 268.299,193.845 268.487,191.159 		"/>
		<polygon style="fill:#263238;" points="271.173,191.159 270.985,193.845 273.67,193.845 273.858,191.159 		"/>
		<polygon style="fill:#263238;" points="273.858,191.159 273.67,193.845 276.355,193.845 276.543,191.159 		"/>
		<polygon style="fill:#263238;" points="276.543,191.159 276.355,193.845 279.041,193.845 279.228,191.159 		"/>
		<polygon style="fill:#263238;" points="281.914,191.159 281.726,193.845 284.411,193.845 284.599,191.159 		"/>
		<polygon style="fill:#263238;" points="289.969,191.159 289.782,193.845 292.467,193.845 292.655,191.159 		"/>
		<polygon style="fill:#263238;" points="298.025,191.159 297.837,193.845 300.523,193.845 300.711,191.159 		"/>
		<polygon style="fill:#263238;" points="300.711,191.159 300.523,193.845 303.208,193.845 303.396,191.159 		"/>
		<polygon style="fill:#263238;" points="303.396,191.159 303.208,193.845 305.893,193.845 306.081,191.159 		"/>
		<polygon style="fill:#263238;" points="306.081,191.159 305.893,193.845 308.578,193.845 308.766,191.159 		"/>
		<polygon style="fill:#263238;" points="314.137,191.159 313.949,193.845 316.634,193.845 316.822,191.159 		"/>
		<polygon style="fill:#263238;" points="319.507,191.159 319.319,193.845 322.005,193.845 322.193,191.159 		"/>
		<polygon style="fill:#263238;" points="322.193,191.159 322.005,193.845 324.69,193.845 324.878,191.159 		"/>
		<polygon style="fill:#263238;" points="324.878,191.159 324.69,193.845 327.375,193.845 327.563,191.159 		"/>
		<polygon style="fill:#263238;" points="330.248,191.159 330.061,193.845 332.746,193.845 332.934,191.159 		"/>
		<polygon style="fill:#263238;" points="265.614,193.844 265.427,196.53 268.112,196.53 268.299,193.844 		"/>
		<polygon style="fill:#263238;" points="281.726,193.844 281.538,196.53 284.223,196.53 284.411,193.844 		"/>
		<polygon style="fill:#263238;" points="292.467,193.844 292.279,196.53 294.964,196.53 295.152,193.844 		"/>
		<polygon style="fill:#263238;" points="295.152,193.844 294.964,196.53 297.65,196.53 297.837,193.844 		"/>
		<polygon style="fill:#263238;" points="300.523,193.844 300.335,196.53 303.02,196.53 303.208,193.844 		"/>
		<polygon style="fill:#263238;" points="303.208,193.844 303.02,196.53 305.705,196.53 305.893,193.844 		"/>
		<polygon style="fill:#263238;" points="305.893,193.844 305.705,196.53 308.391,196.53 308.578,193.844 		"/>
		<polygon style="fill:#263238;" points="308.578,193.844 308.391,196.53 311.076,196.53 311.264,193.844 		"/>
		<polygon style="fill:#263238;" points="313.949,193.844 313.761,196.53 316.447,196.53 316.634,193.844 		"/>
		<polygon style="fill:#263238;" points="330.061,193.844 329.873,196.53 332.558,196.53 332.746,193.844 		"/>
		<polygon style="fill:#263238;" points="265.427,196.53 265.239,199.215 267.924,199.215 268.112,196.53 		"/>
		<polygon style="fill:#263238;" points="268.112,196.53 267.924,199.215 270.609,199.215 270.797,196.53 		"/>
		<polygon style="fill:#263238;" points="270.797,196.53 270.609,199.215 273.294,199.215 273.482,196.53 		"/>
		<polygon style="fill:#263238;" points="273.482,196.53 273.294,199.215 275.98,199.215 276.168,196.53 		"/>
		<polygon style="fill:#263238;" points="276.168,196.53 275.98,199.215 278.665,199.215 278.853,196.53 		"/>
		<polygon style="fill:#263238;" points="278.853,196.53 278.665,199.215 281.35,199.215 281.538,196.53 		"/>
		<polygon style="fill:#263238;" points="281.538,196.53 281.35,199.215 284.036,199.215 284.223,196.53 		"/>
		<polygon style="fill:#263238;" points="286.909,196.53 286.721,199.215 289.406,199.215 289.594,196.53 		"/>
		<polygon style="fill:#263238;" points="292.279,196.53 292.091,199.215 294.777,199.215 294.964,196.53 		"/>
		<polygon style="fill:#263238;" points="297.65,196.53 297.462,199.215 300.147,199.215 300.335,196.53 		"/>
		<polygon style="fill:#263238;" points="303.02,196.53 302.832,199.215 305.518,199.215 305.705,196.53 		"/>
		<polygon style="fill:#263238;" points="308.391,196.53 308.203,199.215 310.888,199.215 311.076,196.53 		"/>
		<polygon style="fill:#263238;" points="313.761,196.53 313.573,199.215 316.259,199.215 316.447,196.53 		"/>
		<polygon style="fill:#263238;" points="316.447,196.53 316.259,199.215 318.944,199.215 319.132,196.53 		"/>
		<polygon style="fill:#263238;" points="319.132,196.53 318.944,199.215 321.629,199.215 321.817,196.53 		"/>
		<polygon style="fill:#263238;" points="321.817,196.53 321.629,199.215 324.315,199.215 324.502,196.53 		"/>
		<polygon style="fill:#263238;" points="324.502,196.53 324.315,199.215 327,199.215 327.188,196.53 		"/>
		<polygon style="fill:#263238;" points="327.188,196.53 327,199.215 329.685,199.215 329.873,196.53 		"/>
		<polygon style="fill:#263238;" points="329.873,196.53 329.685,199.215 332.37,199.215 332.558,196.53 		"/>
		<polygon style="fill:#263238;" points="286.721,199.215 286.533,201.9 289.218,201.9 289.406,199.215 		"/>
		<polygon style="fill:#263238;" points="297.462,199.215 297.274,201.9 299.959,201.9 300.147,199.215 		"/>
		<polygon style="fill:#263238;" points="300.147,199.215 299.959,201.9 302.645,201.9 302.832,199.215 		"/>
		<polygon style="fill:#263238;" points="308.203,199.215 308.015,201.9 310.7,201.9 310.888,199.215 		"/>
		<polygon style="fill:#263238;" points="265.051,201.9 264.863,204.586 267.548,204.586 267.736,201.9 		"/>
		<polygon style="fill:#263238;" points="267.736,201.9 267.548,204.586 270.234,204.586 270.422,201.9 		"/>
		<polygon style="fill:#263238;" points="270.422,201.9 270.234,204.586 272.919,204.586 273.107,201.9 		"/>
		<polygon style="fill:#263238;" points="275.792,201.9 275.604,204.586 278.289,204.586 278.477,201.9 		"/>
		<polygon style="fill:#263238;" points="278.477,201.9 278.289,204.586 280.975,204.586 281.163,201.9 		"/>
		<polygon style="fill:#263238;" points="281.163,201.9 280.975,204.586 283.66,204.586 283.848,201.9 		"/>
		<polygon style="fill:#263238;" points="283.848,201.9 283.66,204.586 286.345,204.586 286.533,201.9 		"/>
		<polygon style="fill:#263238;" points="286.533,201.9 286.345,204.586 289.031,204.586 289.218,201.9 		"/>
		<polygon style="fill:#263238;" points="294.589,201.9 294.401,204.586 297.086,204.586 297.274,201.9 		"/>
		<polygon style="fill:#263238;" points="297.274,201.9 297.086,204.586 299.772,204.586 299.959,201.9 		"/>
		<polygon style="fill:#263238;" points="299.959,201.9 299.772,204.586 302.457,204.586 302.645,201.9 		"/>
		<polygon style="fill:#263238;" points="308.015,201.9 307.827,204.586 310.513,204.586 310.7,201.9 		"/>
		<polygon style="fill:#263238;" points="310.7,201.9 310.513,204.586 313.198,204.586 313.386,201.9 		"/>
		<polygon style="fill:#263238;" points="313.386,201.9 313.198,204.586 315.883,204.586 316.071,201.9 		"/>
		<polygon style="fill:#263238;" points="324.127,201.9 323.939,204.586 326.624,204.586 326.812,201.9 		"/>
		<polygon style="fill:#263238;" points="270.234,204.586 270.046,207.271 272.731,207.271 272.919,204.586 		"/>
		<polygon style="fill:#263238;" points="272.919,204.586 272.731,207.271 275.417,207.271 275.604,204.586 		"/>
		<polygon style="fill:#263238;" points="275.604,204.586 275.417,207.271 278.102,207.271 278.289,204.586 		"/>
		<polygon style="fill:#263238;" points="283.66,204.586 283.472,207.271 286.158,207.271 286.345,204.586 		"/>
		<polygon style="fill:#263238;" points="286.345,204.586 286.158,207.271 288.843,207.271 289.031,204.586 		"/>
		<polygon style="fill:#263238;" points="289.031,204.586 288.843,207.271 291.528,207.271 291.716,204.586 		"/>
		<polygon style="fill:#263238;" points="294.401,204.586 294.213,207.271 296.899,207.271 297.086,204.586 		"/>
		<polygon style="fill:#263238;" points="297.086,204.586 296.899,207.271 299.584,207.271 299.772,204.586 		"/>
		<polygon style="fill:#263238;" points="307.827,204.586 307.64,207.271 310.325,207.271 310.513,204.586 		"/>
		<polygon style="fill:#263238;" points="313.198,204.586 313.01,207.271 315.695,207.271 315.883,204.586 		"/>
		<polygon style="fill:#263238;" points="329.31,204.586 329.122,207.271 331.807,207.271 331.995,204.586 		"/>
		<polygon style="fill:#263238;" points="270.046,207.271 269.858,209.956 272.543,209.956 272.731,207.271 		"/>
		<polygon style="fill:#263238;" points="280.787,207.271 280.599,209.956 283.284,209.956 283.472,207.271 		"/>
		<polygon style="fill:#263238;" points="283.472,207.271 283.284,209.956 285.97,209.956 286.158,207.271 		"/>
		<polygon style="fill:#263238;" points="291.528,207.271 291.34,209.956 294.026,209.956 294.213,207.271 		"/>
		<polygon style="fill:#263238;" points="296.899,207.271 296.711,209.956 299.396,209.956 299.584,207.271 		"/>
		<polygon style="fill:#263238;" points="302.269,207.271 302.081,209.956 304.767,209.956 304.954,207.271 		"/>
		<polygon style="fill:#263238;" points="313.01,207.271 312.822,209.956 315.508,209.956 315.695,207.271 		"/>
		<polygon style="fill:#263238;" points="315.695,207.271 315.508,209.956 318.193,209.956 318.381,207.271 		"/>
		<polygon style="fill:#263238;" points="318.381,207.271 318.193,209.956 320.878,209.956 321.066,207.271 		"/>
		<polygon style="fill:#263238;" points="323.751,207.271 323.563,209.956 326.249,209.956 326.436,207.271 		"/>
		<polygon style="fill:#263238;" points="326.436,207.271 326.249,209.956 328.934,209.956 329.122,207.271 		"/>
		<polygon style="fill:#263238;" points="329.122,207.271 328.934,209.956 331.619,209.956 331.807,207.271 		"/>
		<polygon style="fill:#263238;" points="264.488,209.956 264.3,212.641 266.985,212.641 267.173,209.956 		"/>
		<polygon style="fill:#263238;" points="267.173,209.956 266.985,212.641 269.67,212.641 269.858,209.956 		"/>
		<polygon style="fill:#263238;" points="269.858,209.956 269.67,212.641 272.356,212.641 272.543,209.956 		"/>
		<polygon style="fill:#263238;" points="275.229,209.956 275.041,212.641 277.726,212.641 277.914,209.956 		"/>
		<polygon style="fill:#263238;" points="288.655,209.956 288.467,212.641 291.152,212.641 291.34,209.956 		"/>
		<polygon style="fill:#263238;" points="291.34,209.956 291.152,212.641 293.838,212.641 294.026,209.956 		"/>
		<polygon style="fill:#263238;" points="296.711,209.956 296.523,212.641 299.208,212.641 299.396,209.956 		"/>
		<polygon style="fill:#263238;" points="299.396,209.956 299.208,212.641 301.893,212.641 302.081,209.956 		"/>
		<polygon style="fill:#263238;" points="302.081,209.956 301.893,212.641 304.579,212.641 304.767,209.956 		"/>
		<polygon style="fill:#263238;" points="304.767,209.956 304.579,212.641 307.264,212.641 307.452,209.956 		"/>
		<polygon style="fill:#263238;" points="310.137,209.956 309.949,212.641 312.635,212.641 312.822,209.956 		"/>
		<polygon style="fill:#263238;" points="312.822,209.956 312.635,212.641 315.32,212.641 315.508,209.956 		"/>
		<polygon style="fill:#263238;" points="315.508,209.956 315.32,212.641 318.005,212.641 318.193,209.956 		"/>
		<polygon style="fill:#263238;" points="326.249,209.956 326.061,212.641 328.746,212.641 328.934,209.956 		"/>
		<polygon style="fill:#263238;" points="269.67,212.641 269.483,215.327 272.168,215.327 272.356,212.641 		"/>
		<polygon style="fill:#263238;" points="272.356,212.641 272.168,215.327 274.853,215.327 275.041,212.641 		"/>
		<polygon style="fill:#263238;" points="280.411,212.641 280.224,215.327 282.909,215.327 283.097,212.641 		"/>
		<polygon style="fill:#263238;" points="285.782,212.641 285.594,215.327 288.28,215.327 288.467,212.641 		"/>
		<polygon style="fill:#263238;" points="291.152,212.641 290.965,215.327 293.65,215.327 293.838,212.641 		"/>
		<polygon style="fill:#263238;" points="299.208,212.641 299.021,215.327 301.706,215.327 301.893,212.641 		"/>
		<polygon style="fill:#263238;" points="307.264,212.641 307.076,215.327 309.762,215.327 309.949,212.641 		"/>
		<polygon style="fill:#263238;" points="309.949,212.641 309.762,215.327 312.447,215.327 312.635,212.641 		"/>
		<polygon style="fill:#263238;" points="312.635,212.641 312.447,215.327 315.132,215.327 315.32,212.641 		"/>
		<polygon style="fill:#263238;" points="315.32,212.641 315.132,215.327 317.817,215.327 318.005,212.641 		"/>
		<polygon style="fill:#263238;" points="320.69,212.641 320.503,215.327 323.188,215.327 323.376,212.641 		"/>
		<polygon style="fill:#263238;" points="326.061,212.641 325.873,215.327 328.558,215.327 328.746,212.641 		"/>
		<polygon style="fill:#263238;" points="328.746,212.641 328.558,215.327 331.244,215.327 331.431,212.641 		"/>
		<polygon style="fill:#263238;" points="277.538,215.327 277.351,218.012 280.036,218.012 280.224,215.327 		"/>
		<polygon style="fill:#263238;" points="282.909,215.327 282.721,218.012 285.406,218.012 285.594,215.327 		"/>
		<polygon style="fill:#263238;" points="285.594,215.327 285.406,218.012 288.092,218.012 288.28,215.327 		"/>
		<polygon style="fill:#263238;" points="290.965,215.327 290.777,218.012 293.462,218.012 293.65,215.327 		"/>
		<polygon style="fill:#263238;" points="296.335,215.327 296.147,218.012 298.833,218.012 299.021,215.327 		"/>
		<polygon style="fill:#263238;" points="307.076,215.327 306.888,218.012 309.574,218.012 309.762,215.327 		"/>
		<polygon style="fill:#263238;" points="309.762,215.327 309.574,218.012 312.259,218.012 312.447,215.327 		"/>
		<polygon style="fill:#263238;" points="312.447,215.327 312.259,218.012 314.944,218.012 315.132,215.327 		"/>
		<polygon style="fill:#263238;" points="320.503,215.327 320.315,218.012 323,218.012 323.188,215.327 		"/>
		<polygon style="fill:#263238;" points="328.558,215.327 328.371,218.012 331.056,218.012 331.244,215.327 		"/>
		<polygon style="fill:#263238;" points="263.924,218.012 263.737,220.697 266.422,220.697 266.61,218.012 		"/>
		<polygon style="fill:#263238;" points="271.98,218.012 271.792,220.697 274.478,220.697 274.665,218.012 		"/>
		<polygon style="fill:#263238;" points="274.665,218.012 274.478,220.697 277.163,220.697 277.351,218.012 		"/>
		<polygon style="fill:#263238;" points="277.351,218.012 277.163,220.697 279.848,220.697 280.036,218.012 		"/>
		<polygon style="fill:#263238;" points="280.036,218.012 279.848,220.697 282.533,220.697 282.721,218.012 		"/>
		<polygon style="fill:#263238;" points="282.721,218.012 282.533,220.697 285.219,220.697 285.406,218.012 		"/>
		<polygon style="fill:#263238;" points="288.092,218.012 287.904,220.697 290.589,220.697 290.777,218.012 		"/>
		<polygon style="fill:#263238;" points="290.777,218.012 290.589,220.697 293.274,220.697 293.462,218.012 		"/>
		<polygon style="fill:#263238;" points="298.833,218.012 298.645,220.697 301.33,220.697 301.518,218.012 		"/>
		<polygon style="fill:#263238;" points="306.888,218.012 306.701,220.697 309.386,220.697 309.574,218.012 		"/>
		<polygon style="fill:#263238;" points="309.574,218.012 309.386,220.697 312.071,220.697 312.259,218.012 		"/>
		<polygon style="fill:#263238;" points="312.259,218.012 312.071,220.697 314.757,220.697 314.944,218.012 		"/>
		<polygon style="fill:#263238;" points="314.944,218.012 314.757,220.697 317.442,220.697 317.63,218.012 		"/>
		<polygon style="fill:#263238;" points="323,218.012 322.812,220.697 325.498,220.697 325.685,218.012 		"/>
		<polygon style="fill:#263238;" points="325.685,218.012 325.498,220.697 328.183,220.697 328.371,218.012 		"/>
		<polygon style="fill:#263238;" points="328.371,218.012 328.183,220.697 330.868,220.697 331.056,218.012 		"/>
		<polygon style="fill:#263238;" points="266.422,220.697 266.234,223.382 268.919,223.382 269.107,220.697 		"/>
		<polygon style="fill:#263238;" points="269.107,220.697 268.919,223.382 271.605,223.382 271.792,220.697 		"/>
		<polygon style="fill:#263238;" points="277.163,220.697 276.975,223.382 279.66,223.382 279.848,220.697 		"/>
		<polygon style="fill:#263238;" points="282.533,220.697 282.346,223.382 285.031,223.382 285.219,220.697 		"/>
		<polygon style="fill:#263238;" points="287.904,220.697 287.716,223.382 290.401,223.382 290.589,220.697 		"/>
		<polygon style="fill:#263238;" points="290.589,220.697 290.401,223.382 293.087,223.382 293.274,220.697 		"/>
		<polygon style="fill:#263238;" points="298.645,220.697 298.457,223.382 301.142,223.382 301.33,220.697 		"/>
		<polygon style="fill:#263238;" points="304.016,220.697 303.828,223.382 306.513,223.382 306.701,220.697 		"/>
		<polygon style="fill:#263238;" points="312.071,220.697 311.884,223.382 314.569,223.382 314.757,220.697 		"/>
		<polygon style="fill:#263238;" points="317.442,220.697 317.254,223.382 319.939,223.382 320.127,220.697 		"/>
		<polygon style="fill:#263238;" points="325.498,220.697 325.31,223.382 327.995,223.382 328.183,220.697 		"/>
		<polygon style="fill:#263238;" points="263.549,223.382 263.361,226.068 266.046,226.068 266.234,223.382 		"/>
		<polygon style="fill:#263238;" points="268.919,223.382 268.732,226.068 271.417,226.068 271.605,223.382 		"/>
		<polygon style="fill:#263238;" points="276.975,223.382 276.787,226.068 279.473,226.068 279.66,223.382 		"/>
		<polygon style="fill:#263238;" points="279.66,223.382 279.473,226.068 282.158,226.068 282.346,223.382 		"/>
		<polygon style="fill:#263238;" points="282.346,223.382 282.158,226.068 284.843,226.068 285.031,223.382 		"/>
		<polygon style="fill:#263238;" points="298.457,223.382 298.269,226.068 300.955,226.068 301.142,223.382 		"/>
		<polygon style="fill:#263238;" points="306.513,223.382 306.325,226.068 309.01,226.068 309.198,223.382 		"/>
		<polygon style="fill:#263238;" points="309.198,223.382 309.01,226.068 311.696,226.068 311.884,223.382 		"/>
		<polygon style="fill:#263238;" points="311.884,223.382 311.696,226.068 314.381,226.068 314.569,223.382 		"/>
		<polygon style="fill:#263238;" points="314.569,223.382 314.381,226.068 317.066,226.068 317.254,223.382 		"/>
		<polygon style="fill:#263238;" points="317.254,223.382 317.066,226.068 319.751,226.068 319.939,223.382 		"/>
		<polygon style="fill:#263238;" points="319.939,223.382 319.751,226.068 322.437,226.068 322.625,223.382 		"/>
		<polygon style="fill:#263238;" points="284.843,226.068 284.655,228.753 287.341,228.753 287.528,226.068 		"/>
		<polygon style="fill:#263238;" points="290.214,226.068 290.026,228.753 292.711,228.753 292.899,226.068 		"/>
		<polygon style="fill:#263238;" points="295.584,226.068 295.396,228.753 298.082,228.753 298.269,226.068 		"/>
		<polygon style="fill:#263238;" points="306.325,226.068 306.137,228.753 308.823,228.753 309.01,226.068 		"/>
		<polygon style="fill:#263238;" points="317.066,226.068 316.879,228.753 319.564,228.753 319.751,226.068 		"/>
		<polygon style="fill:#263238;" points="319.751,226.068 319.564,228.753 322.249,228.753 322.437,226.068 		"/>
		<polygon style="fill:#263238;" points="325.122,226.068 324.934,228.753 327.62,228.753 327.807,226.068 		"/>
		<polygon style="fill:#263238;" points="327.807,226.068 327.62,228.753 330.305,228.753 330.493,226.068 		"/>
		<polygon style="fill:#263238;" points="263.173,228.753 262.986,231.438 265.671,231.438 265.858,228.753 		"/>
		<polygon style="fill:#263238;" points="265.858,228.753 265.671,231.438 268.356,231.438 268.544,228.753 		"/>
		<polygon style="fill:#263238;" points="268.544,228.753 268.356,231.438 271.041,231.438 271.229,228.753 		"/>
		<polygon style="fill:#263238;" points="271.229,228.753 271.041,231.438 273.727,231.438 273.914,228.753 		"/>
		<polygon style="fill:#263238;" points="273.914,228.753 273.727,231.438 276.412,231.438 276.6,228.753 		"/>
		<polygon style="fill:#263238;" points="276.6,228.753 276.412,231.438 279.097,231.438 279.285,228.753 		"/>
		<polygon style="fill:#263238;" points="279.285,228.753 279.097,231.438 281.782,231.438 281.97,228.753 		"/>
		<polygon style="fill:#263238;" points="284.655,228.753 284.468,231.438 287.153,231.438 287.341,228.753 		"/>
		<polygon style="fill:#263238;" points="287.341,228.753 287.153,231.438 289.838,231.438 290.026,228.753 		"/>
		<polygon style="fill:#263238;" points="290.026,228.753 289.838,231.438 292.523,231.438 292.711,228.753 		"/>
		<polygon style="fill:#263238;" points="298.082,228.753 297.894,231.438 300.579,231.438 300.767,228.753 		"/>
		<polygon style="fill:#263238;" points="300.767,228.753 300.579,231.438 303.264,231.438 303.452,228.753 		"/>
		<polygon style="fill:#263238;" points="303.452,228.753 303.264,231.438 305.95,231.438 306.137,228.753 		"/>
		<polygon style="fill:#263238;" points="306.137,228.753 305.95,231.438 308.635,231.438 308.823,228.753 		"/>
		<polygon style="fill:#263238;" points="311.508,228.753 311.32,231.438 314.005,231.438 314.193,228.753 		"/>
		<polygon style="fill:#263238;" points="316.879,228.753 316.691,231.438 319.376,231.438 319.564,228.753 		"/>
		<polygon style="fill:#263238;" points="319.564,228.753 319.376,231.438 322.061,231.438 322.249,228.753 		"/>
		<polygon style="fill:#263238;" points="324.934,228.753 324.746,231.438 327.432,231.438 327.62,228.753 		"/>
		<polygon style="fill:#263238;" points="327.62,228.753 327.432,231.438 330.117,231.438 330.305,228.753 		"/>
		<polygon style="fill:#263238;" points="262.986,231.438 262.798,234.124 265.483,234.124 265.671,231.438 		"/>
		<polygon style="fill:#263238;" points="279.097,231.438 278.909,234.124 281.595,234.124 281.782,231.438 		"/>
		<polygon style="fill:#263238;" points="284.468,231.438 284.28,234.124 286.965,234.124 287.153,231.438 		"/>
		<polygon style="fill:#263238;" points="295.209,231.438 295.021,234.124 297.706,234.124 297.894,231.438 		"/>
		<polygon style="fill:#263238;" points="297.894,231.438 297.706,234.124 300.391,234.124 300.579,231.438 		"/>
		<polygon style="fill:#263238;" points="300.579,231.438 300.391,234.124 303.077,234.124 303.264,231.438 		"/>
		<polygon style="fill:#263238;" points="305.95,231.438 305.762,234.124 308.447,234.124 308.635,231.438 		"/>
		<polygon style="fill:#263238;" points="316.691,231.438 316.503,234.124 319.188,234.124 319.376,231.438 		"/>
		<polygon style="fill:#263238;" points="319.376,231.438 319.188,234.124 321.874,234.124 322.061,231.438 		"/>
		<polygon style="fill:#263238;" points="324.746,231.438 324.559,234.124 327.244,234.124 327.432,231.438 		"/>
		<polygon style="fill:#263238;" points="262.798,234.124 262.61,236.809 265.295,236.809 265.483,234.124 		"/>
		<polygon style="fill:#263238;" points="268.168,234.124 267.98,236.809 270.666,236.809 270.853,234.124 		"/>
		<polygon style="fill:#263238;" points="270.853,234.124 270.666,236.809 273.351,236.809 273.539,234.124 		"/>
		<polygon style="fill:#263238;" points="273.539,234.124 273.351,236.809 276.036,236.809 276.224,234.124 		"/>
		<polygon style="fill:#263238;" points="278.909,234.124 278.721,236.809 281.407,236.809 281.595,234.124 		"/>
		<polygon style="fill:#263238;" points="284.28,234.124 284.092,236.809 286.777,236.809 286.965,234.124 		"/>
		<polygon style="fill:#263238;" points="292.336,234.124 292.148,236.809 294.833,236.809 295.021,234.124 		"/>
		<polygon style="fill:#263238;" points="295.021,234.124 294.833,236.809 297.518,236.809 297.706,234.124 		"/>
		<polygon style="fill:#263238;" points="297.706,234.124 297.518,236.809 300.204,236.809 300.391,234.124 		"/>
		<polygon style="fill:#263238;" points="300.391,234.124 300.204,236.809 302.889,236.809 303.077,234.124 		"/>
		<polygon style="fill:#263238;" points="305.762,234.124 305.574,236.809 308.259,236.809 308.447,234.124 		"/>
		<polygon style="fill:#263238;" points="308.447,234.124 308.259,236.809 310.945,236.809 311.132,234.124 		"/>
		<polygon style="fill:#263238;" points="311.132,234.124 310.945,236.809 313.63,236.809 313.818,234.124 		"/>
		<polygon style="fill:#263238;" points="313.818,234.124 313.63,236.809 316.315,236.809 316.503,234.124 		"/>
		<polygon style="fill:#263238;" points="316.503,234.124 316.315,236.809 319,236.809 319.188,234.124 		"/>
		<polygon style="fill:#263238;" points="319.188,234.124 319,236.809 321.686,236.809 321.874,234.124 		"/>
		<polygon style="fill:#263238;" points="324.559,234.124 324.371,236.809 327.056,236.809 327.244,234.124 		"/>
		<polygon style="fill:#263238;" points="262.61,236.809 262.422,239.494 265.107,239.494 265.295,236.809 		"/>
		<polygon style="fill:#263238;" points="267.98,236.809 267.793,239.494 270.478,239.494 270.666,236.809 		"/>
		<polygon style="fill:#263238;" points="270.666,236.809 270.478,239.494 273.163,239.494 273.351,236.809 		"/>
		<polygon style="fill:#263238;" points="273.351,236.809 273.163,239.494 275.849,239.494 276.036,236.809 		"/>
		<polygon style="fill:#263238;" points="278.721,236.809 278.534,239.494 281.219,239.494 281.407,236.809 		"/>
		<polygon style="fill:#263238;" points="286.777,236.809 286.59,239.494 289.275,239.494 289.463,236.809 		"/>
		<polygon style="fill:#263238;" points="289.463,236.809 289.275,239.494 291.96,239.494 292.148,236.809 		"/>
		<polygon style="fill:#263238;" points="294.833,236.809 294.645,239.494 297.331,239.494 297.518,236.809 		"/>
		<polygon style="fill:#263238;" points="302.889,236.809 302.701,239.494 305.386,239.494 305.574,236.809 		"/>
		<polygon style="fill:#263238;" points="305.574,236.809 305.386,239.494 308.072,239.494 308.259,236.809 		"/>
		<polygon style="fill:#263238;" points="313.63,236.809 313.442,239.494 316.127,239.494 316.315,236.809 		"/>
		<polygon style="fill:#263238;" points="316.315,236.809 316.127,239.494 318.813,239.494 319,236.809 		"/>
		<polygon style="fill:#263238;" points="319,236.809 318.813,239.494 321.498,239.494 321.686,236.809 		"/>
		<polygon style="fill:#263238;" points="321.686,236.809 321.498,239.494 324.183,239.494 324.371,236.809 		"/>
		<polygon style="fill:#263238;" points="262.422,239.494 262.234,242.179 264.92,242.179 265.107,239.494 		"/>
		<polygon style="fill:#263238;" points="267.793,239.494 267.605,242.179 270.29,242.179 270.478,239.494 		"/>
		<polygon style="fill:#263238;" points="270.478,239.494 270.29,242.179 272.975,242.179 273.163,239.494 		"/>
		<polygon style="fill:#263238;" points="273.163,239.494 272.975,242.179 275.661,242.179 275.849,239.494 		"/>
		<polygon style="fill:#263238;" points="278.534,239.494 278.346,242.179 281.031,242.179 281.219,239.494 		"/>
		<polygon style="fill:#263238;" points="283.904,239.494 283.716,242.179 286.402,242.179 286.59,239.494 		"/>
		<polygon style="fill:#263238;" points="297.331,239.494 297.143,242.179 299.828,242.179 300.016,239.494 		"/>
		<polygon style="fill:#263238;" points="302.701,239.494 302.513,242.179 305.199,242.179 305.386,239.494 		"/>
		<polygon style="fill:#263238;" points="316.127,239.494 315.94,242.179 318.625,242.179 318.813,239.494 		"/>
		<polygon style="fill:#263238;" points="326.868,239.494 326.681,242.179 329.366,242.179 329.554,239.494 		"/>
		<polygon style="fill:#263238;" points="262.234,242.179 262.047,244.865 264.732,244.865 264.92,242.179 		"/>
		<polygon style="fill:#263238;" points="278.346,242.179 278.158,244.865 280.844,244.865 281.031,242.179 		"/>
		<polygon style="fill:#263238;" points="283.716,242.179 283.529,244.865 286.214,244.865 286.402,242.179 		"/>
		<polygon style="fill:#263238;" points="286.402,242.179 286.214,244.865 288.899,244.865 289.087,242.179 		"/>
		<polygon style="fill:#263238;" points="291.772,242.179 291.585,244.865 294.27,244.865 294.457,242.179 		"/>
		<polygon style="fill:#263238;" points="297.143,242.179 296.955,244.865 299.64,244.865 299.828,242.179 		"/>
		<polygon style="fill:#263238;" points="299.828,242.179 299.64,244.865 302.326,244.865 302.513,242.179 		"/>
		<polygon style="fill:#263238;" points="302.513,242.179 302.326,244.865 305.011,244.865 305.199,242.179 		"/>
		<polygon style="fill:#263238;" points="305.199,242.179 305.011,244.865 307.696,244.865 307.884,242.179 		"/>
		<polygon style="fill:#263238;" points="310.569,242.179 310.381,244.865 313.067,244.865 313.254,242.179 		"/>
		<polygon style="fill:#263238;" points="315.94,242.179 315.752,244.865 318.437,244.865 318.625,242.179 		"/>
		<polygon style="fill:#263238;" points="318.625,242.179 318.437,244.865 321.122,244.865 321.31,242.179 		"/>
		<polygon style="fill:#263238;" points="323.995,242.179 323.808,244.865 326.493,244.865 326.681,242.179 		"/>
		<polygon style="fill:#263238;" points="262.047,244.865 261.859,247.55 264.544,247.55 264.732,244.865 		"/>
		<polygon style="fill:#263238;" points="264.732,244.865 264.544,247.55 267.229,247.55 267.417,244.865 		"/>
		<polygon style="fill:#263238;" points="267.417,244.865 267.229,247.55 269.915,247.55 270.102,244.865 		"/>
		<polygon style="fill:#263238;" points="270.102,244.865 269.915,247.55 272.6,247.55 272.788,244.865 		"/>
		<polygon style="fill:#263238;" points="272.788,244.865 272.6,247.55 275.285,247.55 275.473,244.865 		"/>
		<polygon style="fill:#263238;" points="275.473,244.865 275.285,247.55 277.97,247.55 278.158,244.865 		"/>
		<polygon style="fill:#263238;" points="278.158,244.865 277.97,247.55 280.656,247.55 280.844,244.865 		"/>
		<polygon style="fill:#263238;" points="283.529,244.865 283.341,247.55 286.026,247.55 286.214,244.865 		"/>
		<polygon style="fill:#263238;" points="286.214,244.865 286.026,247.55 288.711,247.55 288.899,244.865 		"/>
		<polygon style="fill:#263238;" points="288.899,244.865 288.711,247.55 291.397,247.55 291.585,244.865 		"/>
		<polygon style="fill:#263238;" points="291.585,244.865 291.397,247.55 294.082,247.55 294.27,244.865 		"/>
		<polygon style="fill:#263238;" points="294.27,244.865 294.082,247.55 296.767,247.55 296.955,244.865 		"/>
		<polygon style="fill:#263238;" points="296.955,244.865 296.767,247.55 299.453,247.55 299.64,244.865 		"/>
		<polygon style="fill:#263238;" points="305.011,244.865 304.823,247.55 307.508,247.55 307.696,244.865 		"/>
		<polygon style="fill:#263238;" points="307.696,244.865 307.508,247.55 310.194,247.55 310.381,244.865 		"/>
		<polygon style="fill:#263238;" points="313.067,244.865 312.879,247.55 315.564,247.55 315.752,244.865 		"/>
		<polygon style="fill:#263238;" points="323.808,244.865 323.62,247.55 326.305,247.55 326.493,244.865 		"/>
		<polygon style="fill:#263238;" points="326.493,244.865 326.305,247.55 328.99,247.55 329.178,244.865 		"/>
	</g>
</g>
<g id="Character">
	<g>
		<g>
			<g>
				<g>
					<polygon style="fill:#FF887B;" points="190.61,410.411 198.405,408.529 194.38,390.407 186.585,392.289 					"/>
					<path style="fill:#263238;" d="M198.112,406.647l-8.524,2.058c-0.315,0.075-0.531,0.363-0.516,0.686l0.294,7.236
						c0.034,0.666,0.601,1.179,1.267,1.146c0.076-0.004,0.151-0.015,0.224-0.033c3.055-0.798,7.444-2.048,11.308-2.981
						c4.508-1.089,4.937-0.931,10.222-2.207c3.201-0.773,3.226-4.197,1.811-4.166c-6.45,0.144-7.933,0.352-14.062-1.616
						C199.485,406.545,198.785,406.503,198.112,406.647z"/>
					<polygon style="opacity:0.2;" points="194.382,390.416 196.457,399.758 188.663,401.64 186.588,392.298 					"/>
					<path style="fill:#407BFF;" d="M199.089,406.137c-0.062,0.008-0.123-0.017-0.163-0.066c-0.064-0.078-0.052-0.193,0.026-0.257
						c0.3-0.27,2.982-2.576,4.044-2.27c0.201,0.051,0.361,0.203,0.423,0.401c0.132,0.318,0.093,0.681-0.103,0.963
						c-0.459,0.502-1.078,0.83-1.751,0.926C200.75,406.012,199.922,406.113,199.089,406.137z M199.586,405.74
						c1.777-0.123,3.019-0.502,3.375-1.032c0.131-0.187,0.155-0.428,0.063-0.637c-0.019-0.081-0.08-0.146-0.159-0.169
						c-0.12-0.018-0.243-0.012-0.361,0.018C201.435,404.357,200.448,404.972,199.586,405.74z"/>
					<path style="fill:#407BFF;" d="M198.975,406.154c-0.059-0.03-0.101-0.085-0.115-0.15c-0.011-0.086-0.334-2.2,0.405-3.228
						c0.216-0.306,0.552-0.506,0.924-0.549c0.515-0.075,0.765,0.141,0.812,0.337c0.37,0.839-1.004,2.918-1.835,3.564l-0.075,0.018
						C199.054,406.157,199.014,406.16,198.975,406.154z M199.578,403.007c-0.386,0.807-0.512,1.714-0.361,2.595
						c0.796-0.794,1.693-2.394,1.476-2.884c-0.021-0.044-0.087-0.196-0.413-0.117l-0.112,0.027
						C199.93,402.675,199.719,402.811,199.578,403.007z"/>
				</g>
				<g>
					<polygon style="fill:#FF887B;" points="130.617,408.849 138.539,410.089 141.747,391.805 133.825,390.565 					"/>
					<path style="fill:#263238;" d="M138.605,409.163l-8.663-1.357c-0.319-0.051-0.63,0.132-0.739,0.437l-2.494,6.799
						c-0.224,0.629,0.104,1.319,0.733,1.543c0.071,0.025,0.145,0.044,0.22,0.056c3.128,0.431,7.661,0.953,11.589,1.568
						c4.582,0.717,4.918,1.026,10.289,1.867c3.253,0.509,4.586-2.645,3.266-3.157c-6.015-2.332-7.465-2.707-12.376-6.869
						C139.913,409.594,139.282,409.287,138.605,409.163z"/>
					<polygon style="opacity:0.2;" points="141.745,391.815 139.883,402.432 131.961,401.192 133.824,390.574 					"/>
					<path style="fill:#407BFF;" d="M139.704,409.065c-0.06-0.017-0.108-0.063-0.126-0.123c-0.029-0.096,0.026-0.198,0.122-0.227
						c0.381-0.135,3.741-1.241,4.604-0.552c0.167,0.124,0.257,0.326,0.237,0.533c0.001,0.344-0.174,0.665-0.464,0.85
						c-0.616,0.289-1.313,0.355-1.972,0.187C141.286,409.585,140.482,409.361,139.704,409.065z M140.314,408.888
						c1.689,0.566,2.981,0.69,3.513,0.336c0.193-0.122,0.307-0.337,0.302-0.565c0.014-0.082-0.018-0.165-0.083-0.217
						c-0.104-0.063-0.22-0.104-0.34-0.121C142.551,408.317,141.404,408.508,140.314,408.888z"/>
					<path style="fill:#407BFF;" d="M139.591,409.037c-0.043-0.05-0.061-0.117-0.049-0.183c0.023-0.084,0.533-2.161,1.609-2.828
						c0.316-0.201,0.703-0.257,1.064-0.154c0.505,0.128,0.653,0.423,0.622,0.622c0.022,0.917-2.043,2.313-3.058,2.591l-0.076-0.012
						C139.663,409.07,139.625,409.058,139.591,409.037z M141.351,406.359c-0.665,0.598-1.128,1.388-1.325,2.26
						c1.039-0.43,2.479-1.565,2.466-2.101c-0.002-0.049-0.005-0.214-0.337-0.266l-0.114-0.018
						C141.804,406.188,141.557,406.232,141.351,406.359z"/>
				</g>
				<g>
					<g>
						<path style="fill:#407BFF;" d="M169.661,292.933c6.248,0.336,12.012,0.742,18.265,0.529
							c0.623-7.298-0.326-17.631-2.888-24.493c-5.166-2.759-11.217-0.944-16.758,0.952L169.661,292.933z"/>
						<path style="opacity:0.2;" d="M169.661,292.933c6.248,0.336,12.012,0.742,18.265,0.529c0.623-7.298-0.326-17.631-2.888-24.493
							c-5.166-2.759-11.217-0.944-16.758,0.952L169.661,292.933z"/>
						<polygon style="opacity:0.2;" points="168.281,270.021 170.38,270.929 173.309,290.992 188.038,291.882 187.926,293.562 
							169.661,293.033 						"/>
					</g>
					<path style="opacity:0.2;fill:#FFFFFF;" d="M185.038,268.969l0.888,2.733l-5.13,1.91l-8.419-1.318l-4.097-2.372
						c0,0,3.537-1.828,8.823-2.364C182.389,267.022,185.038,268.969,185.038,268.969z"/>
				</g>
				<path style="fill:#407BFF;" d="M178.909,235.855l11.44,96.461l8.486,60.83c0.204,1.644-0.783,3.124-2.226,3.338l-9.437,2.401
					c-1.368,0.203-2.688-0.797-3.054-2.323c-3.016-12.568-11.06-37.1-12.579-61.192c0,0-16.049-61.452-19.288-80.456l-0.99-17.184
					L178.909,235.855z"/>
				<path style="opacity:0.2;" d="M164.727,259.15c0,0,2.918,27.348,0,49.581c0,0-6.143-25.51-8.932-35.582L164.727,259.15z"/>
				<path style="fill:#407BFF;" d="M167.034,231.164l-9.671,108.788l-12.239,58.144c-0.305,1.541-1.64,2.492-3.029,2.155
					l-10.38-2.158c-1.342-0.325-2.28-1.74-2.161-3.267c0.982-12.542,0.402-33.03,6.529-55.181c0,0,0.687-74.999,3.305-108.289
					L167.034,231.164z"/>
			</g>
			<g>
				<path style="fill:#FF8B7B;" d="M227.417,182.143l2.096-2.904l7.578,4.664c-1.538,1.305-3.21,2.444-4.988,3.398
					c-1.22,0.623-2.691,0.48-3.769-0.366l-0.285-0.218C226.643,185.611,226.364,183.589,227.417,182.143z"/>
				<polygon style="fill:#FF8B7B;" points="235.644,174.952 239.608,181.805 237.1,183.906 229.522,179.242 				"/>
				<path style="fill:#263238;" d="M175.336,190.341c8.469,2.191,20.972,3.893,23.986,4.289c3.989,0.524,21.053-3.4,28.408-4.678
					c0.42-0.073,0.873-0.164,1.157-0.482c0.368-0.412,0.313-1.037,0.236-1.584c-0.3-2.135-0.599-4.27-0.899-6.405
					c-0.086-0.611-0.194-1.268-0.632-1.702c-0.637-0.632-1.672-0.529-2.556-0.381c-9.704,1.632-23.607,2.635-23.607,2.635
					c-6.877-0.986-14.247-3.854-20.541-6.696C162.124,166.866,171.169,189.263,175.336,190.341z"/>
				<path style="opacity:0.1;" d="M175.336,190.341c8.469,2.191,20.972,3.893,23.986,4.289c3.989,0.524,21.053-3.4,28.408-4.678
					c0.42-0.073,0.873-0.164,1.157-0.482c0.368-0.412,0.313-1.037,0.236-1.584c-0.3-2.135-0.599-4.27-0.899-6.405
					c-0.086-0.611-0.194-1.268-0.632-1.702c-0.637-0.632-1.672-0.529-2.556-0.381c-9.704,1.632-23.607,2.635-23.607,2.635
					c-6.877-0.986-14.247-3.854-20.541-6.696C162.124,166.866,171.169,189.263,175.336,190.341z"/>
				<polygon style="fill:#407BFF;" points="242.186,187.751 233.575,186.041 238.847,167.942 247.457,169.652 				"/>
				<g>
					<path style="fill:#407BFF;" d="M249.229,168.955l-5.897,20.253c-0.148,0.486-0.647,0.791-1.152,0.691l-0.504-0.1
						c0.504,0.1,0.995-0.206,1.143-0.693l5.897-20.253c0.163-0.561-0.187-1.137-0.757-1.251l0.504,0.1
						C249.034,167.816,249.392,168.395,249.229,168.955z"/>
					<path style="opacity:0.3;" d="M249.229,168.955l-5.897,20.253c-0.148,0.486-0.647,0.791-1.152,0.691l-0.504-0.1
						c0.504,0.1,0.995-0.206,1.143-0.693l5.897-20.253c0.163-0.561-0.187-1.137-0.757-1.251l0.504,0.1
						C249.034,167.816,249.392,168.395,249.229,168.955z"/>
				</g>
				<g>
					<path style="fill:#407BFF;" d="M247.959,167.602l-8.594-1.707c-0.505-0.1-1.003,0.205-1.143,0.693l-5.897,20.253
						c-0.163,0.561,0.187,1.138,0.757,1.251l8.594,1.707c0.504,0.1,0.995-0.206,1.143-0.693l5.897-20.253
						C248.879,168.293,248.529,167.716,247.959,167.602z M242.186,187.751l-8.61-1.71l5.271-18.099l8.61,1.71L242.186,187.751z"/>
					<polygon style="fill:#407BFF;" points="247.457,169.652 242.186,187.751 233.575,186.041 238.847,167.942 					"/>
					<polygon style="opacity:0.7;fill:#FFFFFF;" points="247.457,169.652 242.186,187.751 233.575,186.041 238.847,167.942 					"/>
				</g>
				<path style="fill:#FF8B7B;" d="M233.302,176.593l1.933-2.058c0.188-0.201,0.522-0.129,0.612,0.132l0.269,0.784
					c0.169,0.492,0.104,1.035-0.176,1.473l-2.949,4.622l-3.469-2.304L233.302,176.593z"/>
				<g>
					<path style="fill:#263238;" d="M180.359,201.523c0.148,26.331,1.724,36.212-2.193,36.207c-7.27-0.01-33.829,0.959-35.379,0.739
						c-11.465-1.632-4.431-27.738-4.591-31.827c-0.099-2.525-0.308-5.037-0.64-7.513c-0.197-1.453-0.493-2.993-0.985-4.409
						c-0.837-2.414-2.205-4.495-4.544-5.271c-2.094-0.702-4.397-0.086-6.601-0.234c-2.204-0.135-4.729-1.687-4.458-3.879
						c0.135-1.047,0.874-1.884,1.589-2.648c3.214-3.424,6.835-6.823,8.104-11.343c0.542-1.897,0.653-3.978,1.724-5.641
						c4.421-6.798,14.951-0.172,20.222,1.761c3.375,1.244,6.429,3.091,9.779,4.348c3.51,1.318,9.68,1.626,14.175,1.81
						C180.611,173.783,180.359,201.523,180.359,201.523z"/>
				</g>
				<g>
					<path style="fill:#FF8B7B;" d="M150.528,158.177c1.111,4.443,0.861,11.67,0.889,16.669c0.026,4.646,12.018,8.503,12.018,8.503
						s4.941-4.178,1.111-7.303c-3.206-2.615-3.658-5.661-2.94-9.339L150.528,158.177z"/>
					<path style="opacity:0.2;enable-background:new    ;" d="M155.055,161.685l6.559,5.031c-0.211,1.02-0.338,2.055-0.379,3.096
						c-2.388-0.219-5.78-2.653-6.16-5.117C154.882,163.702,154.875,162.681,155.055,161.685z"/>
					<path style="fill:#FF8B7B;" d="M149.441,149.845c0.853,7.514,0.967,11.95,4.973,15.624c6.023,5.521,15.145,1.594,16.557-6.028
						c1.269-6.848-0.341-17.988-7.867-20.598c-5.365-1.9-11.254,0.91-13.153,6.275C149.415,146.632,149.24,148.251,149.441,149.845z
						"/>
					<g>
						<g>
							<path style="fill:#263238;" d="M171.363,157.21c0.394,2.926,0.889,8.113,1.762,11.039
								c-5.139-0.013-10.025,0.268-15.164,0.255c-0.709-0.545-6.995-6.04-6.538-6.513c1.733-1.79,3.87-3.813,1.843-5.834
								c-0.613-0.611-0.286-1.723-0.376-2.584c1.857,2.796,8.961,4.818,12.263,4.218L171.363,157.21z"/>
						</g>
						<path style="fill:#FF8B7B;" d="M163.317,158.738c-1.089,0.39,0.492,2,2.223,2.089h3.09c0.758,0,1.506-0.367,1.864-1.035
							c0.317-0.592,0.304-1.221-0.186-1.403c0,0-0.308-0.212-2.308-0.212C168,158.177,164.498,158.275,163.317,158.738z"/>
						<path style="fill:#263238;" d="M169.006,159.408L169.006,159.408c-1.724,0.531-3.598,0.19-5.024-0.915
							c-0.068-0.083-0.056-0.205,0.027-0.273c0.064-0.052,0.153-0.058,0.224-0.016c1.341,1.015,3.087,1.328,4.697,0.842
							c0.104-0.027,0.21,0.035,0.237,0.139c0,0,0,0,0,0c0.021,0.1-0.042,0.198-0.142,0.219
							C169.019,159.407,169.013,159.408,169.006,159.408z"/>
						<g>
							<path style="fill:#263238;" d="M167.679,155.141c-1.643-0.207-3.206,0.46-4.674,1.075c-1.468,0.615-3.1,1.208-4.715,0.851
								c1.366,1.033,2.926,1.64,4.688,1.862c1.65,0.207,3.155-0.018,5.083-0.915c1.801,1.194,4.546,1.29,6.119,0.552
								c-1.905,0.456-2.67-2.144-4.64-3.057C169.112,155.31,168.153,155.201,167.679,155.141z"/>
							<path style="opacity:0.1;" d="M167.679,155.141c-1.643-0.207-3.206,0.46-4.674,1.075c-1.468,0.615-3.1,1.208-4.715,0.851
								c1.366,1.033,2.926,1.64,4.688,1.862c1.65,0.207,3.155-0.018,5.083-0.915c1.801,1.194,4.546,1.29,6.119,0.552
								c-1.905,0.456-2.67-2.144-4.64-3.057C169.112,155.31,168.153,155.201,167.679,155.141z"/>
						</g>
					</g>
					<path style="fill:#263238;" d="M155.892,148.099c0.484,0.834,0.728,1.804,0.698,2.768c-0.782,0.779-1.507,1.667-2.079,2.611
						c-0.849,1.401-1.123,3.157-2.209,4.384c0.044-0.022-0.247,0.151-0.203,0.129c-0.877-1.609-1.672-3.262-2.38-4.952
						C151.417,151.099,153.594,149.265,155.892,148.099z"/>
					<path style="fill:#FF8B7B;" d="M146.64,157.183c0.835,1.711,2.311,3.022,4.109,3.648c2.387,0.81,3.717-1.291,3.159-3.637
						c-0.489-2.087-2.329-5.029-4.78-4.833C146.677,152.557,145.643,155.087,146.64,157.183z"/>
					<path style="fill:#263238;" d="M162.231,151.383c-0.011,0.609,0.378,1.087,0.784,1.067c0.407-0.02,0.702-0.532,0.667-1.142
						c-0.035-0.61-0.387-1.097-0.784-1.076C162.501,150.252,162.196,150.764,162.231,151.383z"/>
					<path style="fill:#263238;" d="M168.637,151.018c-0.011,0.619,0.387,1.097,0.784,1.076c0.398-0.021,0.702-0.532,0.667-1.152
						c-0.035-0.619-0.378-1.087-0.784-1.067C168.897,149.896,168.611,150.408,168.637,151.018z"/>
					<path style="fill:#FF5652;" d="M166.617,150.643c1.156,1.653,2.479,2.429,4.037,3.711c-0.822,1.234-2.841,1.089-2.841,1.089
						L166.617,150.643z"/>
					<path style="fill:#263238;" d="M159.96,149.246c0.135,0.023,0.27-0.036,0.344-0.151c0.495-0.776,1.331-1.269,2.25-1.326
						c0.199,0.004,0.363-0.154,0.367-0.353c0.004-0.199-0.154-0.363-0.353-0.367c-0.001,0-0.001,0-0.001,0
						c-1.162,0.049-2.227,0.66-2.856,1.639c-0.112,0.164-0.071,0.388,0.093,0.5C159.848,149.224,159.903,149.245,159.96,149.246z"/>
					<path style="fill:#263238;" d="M170.762,148.9c0.069,0.024,0.143,0.025,0.212,0.004c0.176-0.097,0.242-0.318,0.147-0.496
						c-0.545-1.043-1.568-1.752-2.736-1.896c-0.197-0.009-0.367,0.138-0.385,0.335c-0.014,0.198,0.136,0.371,0.334,0.385
						c0,0,0.001,0,0.001,0l0,0c0.909,0.139,1.696,0.706,2.115,1.525C170.526,148.851,170.641,148.904,170.762,148.9z"/>
				</g>
				<path style="opacity:0.4;" d="M143.633,183.388c0,0,0.399,13.522-2.278,19.783c-1.066,2.501-2.098,3.765-2.953,4.375
					c-0.396-2.498-0.907-4.966-1.535-7.383c-0.371-1.417-0.852-2.909-1.51-4.256l-0.232-3.126L143.633,183.388z"/>
				<g>
					<path style="opacity:0.2;" d="M146.026,239.934c-0.089,0.43-0.341,2.655-0.684,4.148c-0.608,2.648-3.068,5.88-5.113,6.941
						c-2.045,1.061-0.84-8.254-0.84-8.254l0.385-3.21L146.026,239.934z"/>
					<g>
						<path style="fill:#FF8B7B;" d="M137.788,239.934l7.696,3.492l0,0c-0.53,2.892-2.181,5.458-4.594,7.138l-0.661,0.46
							c0,0-7.466-7.125-6.464-9.263L137.788,239.934z"/>
					</g>
					<path style="fill:#263238;" d="M122.5,216.734c-0.001,11.052,3.755,15.153,7.025,24.66c0.663,1.929,2.68,3.036,4.671,2.591
						c3.67-0.822,7.279-3.52,4.963-8.285c0,0-2.223-6.176-3.711-18.382c-0.205-1.68-0.409-3.365-0.019-5.012
						c1.115-4.711,5.563-14.087,6.587-20.367c0.876-5.366,1.977-12.076-0.548-14.31C129.676,167.198,122.501,195.543,122.5,216.734z
						"/>
				</g>
				<path style="opacity:0.4;" d="M136.142,172.57c0.003,0.014,0.006,0.027,0.009,0.041c0.352,1.55,2.033,2.43,3.462,1.734
					c2.422-1.18,9.147,1.079,11.804,0.501c0,0,0.008-3.61,0.006-4.605c-0.002-1.075-8.996-4.448-11.652-4.675
					C135.265,165.181,135.323,168.988,136.142,172.57z"/>
			</g>
		</g>
		<path style="fill:#407BFF;" d="M169.775,145.697c-2.854-1.601-6.36-1.049-9.181,0.446c-2.509,1.33-4.582,3.338-6.617,5.319
			c-2.115,2.058-4.153,3.976-6.244,5.992c-0.586,0.565-1.558,0.396-1.908-0.339c-0.244-0.511-0.474-1.024-0.765-1.531
			c-0.171-0.298-0.23-0.648-0.126-0.976c0.238-0.755,0.493-1.521,0.72-2.269c-1.79-5.353-0.716-11.574,2.765-16.018
			c2.33-2.975,6.82-3.044,10.509-2.227c3.689,0.817,7.005,3.199,8.956,6.435c0.734-0.328,1.575,0.108,2.236,0.564
			c0.662,0.456,1.112,1.169,1.391,1.923c0.273,0.739,0.384,1.607-0.021,2.283C171.146,145.874,170.359,146.024,169.775,145.697z"/>
		<path style="fill:#FFFFFF;" d="M164.385,139.312c0.516,0.494,0.918,1.365,1.155,2.039c-1.443,0.051-2.875,0.302-4.188,0.904
			c-0.265-0.743-0.659-1.439-1.158-2.049C161.643,139.881,162.935,139.637,164.385,139.312z"/>
		<g>
			<g>
				<path style="fill:#407BFF;" d="M146.669,292.933c-6.248,0.336-12.012,0.742-18.265,0.529
					c-0.623-7.298,0.326-17.631,2.888-24.493c5.166-2.759,11.217-0.944,16.758,0.952L146.669,292.933z"/>
				<polygon style="opacity:0.2;" points="148.049,270.021 145.95,270.929 143.021,290.992 128.292,291.882 128.404,293.562 
					146.669,293.033 				"/>
			</g>
			<path style="opacity:0.2;fill:#FFFFFF;" d="M131.292,268.969l-0.888,2.733l5.13,1.91l8.419-1.318l4.097-2.372
				c0,0-3.537-1.828-8.823-2.364C133.941,267.022,131.292,268.969,131.292,268.969z"/>
		</g>
	</g>
</g>
</svg>
